<svg height="512pt" viewBox="0 -87 512.00285 512" width="512pt" xmlns="http://www.w3.org/2000/svg"><path d="m13.894531 238.320312 4.882813 21.335938c3.113281 19.976562 20.15625 34.542969 40.378906 34.542969h400.285156c23.503906 0 42.558594-19.054688 42.558594-42.558594v-13.316406" fill="#fff"/><path d="m395.195312 143.804688s-58.40625-90.242188-86.636718-90.242188h-193.210938c-14.289062 0-27.605468 7.023438-35.671875 18.816406l-35.554687 51.824219-12.339844 20.03125h367.464844zm0 0" fill="#c2e8f7"/><path d="m405.789062 238.320312h96.210938v-44.871093c0-1.113281-.042969-2.203125-.125-3.296875-1.566406-20.28125-17.394531-36.832032-37.921875-39.027344l-64.707031-6.886719h-367.464844l-11.984375 19.441407c-8.21875 13.351562-11.421875 29.203124-9.007813 54.730468l3.105469 19.910156h288.195313" fill="#ffc66c"/><path d="m355.191406 248.320312c-.648437 0-1.308594-.070312-1.949218-.199218-.640626-.121094-1.269532-.320313-1.871094-.570313-.609375-.25-1.1875-.550781-1.726563-.910156-.550781-.371094-1.0625-.789063-1.523437-1.25-.457032-.460937-.878906-.96875-1.238282-1.519531-.359374-.539063-.671874-1.121094-.921874-1.71875-.25-.613282-.449219-1.242188-.566407-1.882813-.132812-.640625-.203125-1.300781-.203125-1.949219 0-.648437.070313-1.308593.203125-1.949218.117188-.640625.316407-1.269532.566407-1.871094.25-.609375.5625-1.1875.921874-1.730469.359376-.546875.78125-1.058593 1.238282-1.519531.460937-.460938.972656-.878906 1.523437-1.238281.539063-.359375 1.117188-.671875 1.726563-.921875.601562-.25 1.230468-.4375 1.871094-.570313 1.289062-.257812 2.621093-.257812 3.910156 0 .628906.132813 1.261718.320313 1.871094.570313.597656.25 1.179687.5625 1.71875.921875.550781.359375 1.058593.777343 1.519531 1.238281.460937.460938.882812.972656 1.25 1.519531.359375.542969.660156 1.121094.910156 1.730469.25.601562.449219 1.230469.570313 1.871094.128906.640625.199218 1.300781.199218 1.949218 0 .648438-.070312 1.308594-.199218 1.949219-.121094.640625-.320313 1.269531-.570313 1.882813-.25.597656-.550781 1.179687-.910156 1.71875-.367188.550781-.789063 1.058594-1.25 1.519531-.460938.460937-.96875.878906-1.519531 1.25-.539063.359375-1.121094.660156-1.71875.910156-.609376.25-1.242188.449219-1.871094.570313-.652344.128906-1.3125.199218-1.960938.199218zm0 0"/><path d="m136.953125 294.199219c0 19.074219-15.464844 34.539062-34.539063 34.539062-19.074218 0-34.539062-15.464843-34.539062-34.539062s15.464844-34.539063 34.539062-34.539063c19.074219 0 34.539063 15.464844 34.539063 34.539063zm0 0" fill="#6d6f8d"/><path d="m426.636719 294.199219c0 19.074219-15.464844 34.539062-34.539063 34.539062-19.078125 0-34.539062-15.464843-34.539062-34.539062s15.460937-34.539063 34.539062-34.539063c19.074219 0 34.539063 15.464844 34.539063 34.539063zm0 0" fill="#6d6f8d"/><path d="m136.953125 10h137.34375v43.5625h-137.34375zm0 0" fill="#feda9b"/><path d="m62.359375 190.152344h143.265625v48.171875h-143.265625zm0 0" fill="#6d6f8d"/><path d="m502 238.320312h-40.59375c-9.136719 0-16.539062-7.402343-16.539062-16.539062 0-9.132812 7.402343-16.539062 16.539062-16.539062h40.59375zm0 0" fill="#4dbaf6"/><path d="m511.84375 189.382812c-1.945312-25.238281-21.640625-45.511718-46.832031-48.203124l-64.070313-6.816407c-5.054687-7.558593-16.777344-24.640625-30.683594-41.945312-35.191406-43.789063-52.066406-48.855469-61.699218-48.855469h-24.261719v-33.5625c0-5.523438-4.476563-10-10-10h-137.34375c-5.523437 0-10 4.476562-10 10v33.5625h-11.605469c-17.582031 0-34.003906 8.664062-43.917968 23.160156l-35.554688 51.824219c-.09375.136719-.183594.273437-.265625.414063l-12.34375 20.03125c-.046875.074218-.089844.148437-.136719.226562l-11.847656 19.21875c-9.847656 15.996094-12.972656 34.214844-10.445312 60.917969.019531.199219.042968.398437.074218.597656l3.089844 19.828125c.003906.019531.007812.039062.011719.054688l.003906.027343c0 .011719.003906.023438.003906.039063.011719.058594.019531.117187.03125.179687.011719.050781.019531.105469.03125.15625.003907.023438.007813.046875.011719.066407.015625.085937.035156.171874.054688.257812l4.808593 21c4.023438 24.683594 25.003907 42.566406 50.054688 42.636719 4.550781 19.761719 22.28125 34.542969 43.40625 34.542969 21.121093 0 38.855469-14.78125 43.40625-34.542969h202.867187c4.550782 19.761719 22.285156 34.542969 43.40625 34.542969 21.125 0 38.855469-14.78125 43.40625-34.542969h23.941406c28.980469 0 52.558594-23.574219 52.558594-52.558594v-58.191406c-.003906-1.375-.054687-2.703125-.160156-4.066407zm-56.976562 32.398438c0-3.605469 2.933593-6.539062 6.539062-6.539062h30.59375v13.082031h-30.59375c-3.609375-.003907-6.539062-2.933594-6.539062-6.542969zm-333.097657-158.21875h126.175781v70.671875h-126.175781zm232.808594 41.273438c8.484375 10.546874 16.234375 21.183593 22.007813 29.398437h-108.640626v-70.671875h40.613282c2.144531 0 14.429687 1.988281 46.019531 41.273438zm-207.625-84.835938h117.34375v23.5625h-117.34375zm-94.449219 109.65625 35.425782-51.632812c3.507812-5.132813 8.324218-9.09375 13.839843-11.5625v67.773437h-52.085937zm-24.195312 39.269531 9.054687-14.6875h210.582031v74.082031h-32.320312v-38.167968c0-5.523438-4.476562-10-10-10h-143.265625c-5.523437 0-10 4.476562-10 10v38.167968h-29.902344l-1.738281-11.144531c-2.035156-21.867187.238281-36.308593 7.589844-48.25zm44.050781 59.394531v-28.167968h123.265625v28.167968zm30.054687 90.421876c-13.527343 0-24.539062-11.007813-24.539062-24.542969 0-13.53125 11.011719-24.542969 24.539062-24.542969 13.53125 0 24.539063 11.011719 24.539063 24.542969 0 13.535156-11.007813 24.542969-24.539063 24.542969zm289.683594 0c-13.53125 0-24.539062-11.007813-24.539062-24.542969 0-13.53125 11.007812-24.542969 24.539062-24.542969 13.527344 0 24.535156 11.011719 24.535156 24.542969 0 13.535156-11.007812 24.542969-24.535156 24.542969zm67.34375-34.542969h-23.9375c-4.550781-19.761719-22.285156-34.542969-43.40625-34.542969s-38.855468 14.78125-43.40625 34.542969h-202.871094c-4.550781-19.761719-22.285156-34.542969-43.40625-34.542969-21.121093 0-38.855468 14.78125-43.40625 34.542969-15.25-.070313-28-11.015625-30.347656-26.082031-.039062-.230469-.082031-.460938-.132812-.691407l-2.085938-9.105469h35.726563c.0625.003907.125.003907.191406.003907h143.265625c.0625 0 .128906 0 .191406-.003907h96.273438c5.523437 0 10-4.476562 10-10 0-5.523437-4.476563-10-10-10h-34.144532v-74.082031h130.773438l64.171875 6.828125c15.609375 1.667969 27.808594 14.222656 29.015625 29.851563.066406.84375.097656 1.671875.097656 2.53125v1.792969h-30.597656c-14.632812 0-26.539062 11.90625-26.539062 26.542968 0 2.253906.28125 4.445313.816406 6.539063h-29.890625c-5.523438 0-10 4.476562-10 10 0 5.519531 4.476562 10 10 10h86.207031v3.316406c0 17.953125-14.605469 32.558594-32.558594 32.558594zm0 0"/></svg>