<svg height="511pt" viewBox="1 0 511.9995 511" width="511pt" xmlns="http://www.w3.org/2000/svg"><path d="m106.273438 194.625s-32.308594-35.683594-39.042969-104.703125c-1.375-14.089844 11.0625-25.613281 25.007812-23.179687 62.105469 10.84375 97.722657 56.917968 97.722657 56.917968h132.078124s35.617188-46.074218 97.722657-56.917968c13.945312-2.433594 26.382812 9.089843 25.007812 23.179687-6.734375 69.019531-39.042969 104.703125-39.042969 104.703125l-88.332031 41.371094h-122.789062zm0 0" fill="#d7bae9"/><path d="m331.667969 106.914062c0-48.328124-26.757813-74.671874-66.265625-94.234374-5.914063-2.929688-12.886719-2.929688-18.800782 0-39.507812 19.5625-66.265624 45.90625-66.265624 94.234374" fill="#d7bae9"/><path d="m194.605469 235.996094c-59.226563-18.714844-112.800781-52.011719-155.800781-96.835938l-28.792969-30.015625-.011719 6.316407c-.082031 48.832031 20.1875 95.492187 55.933594 128.761718 17.234375 16.042969 37.519531 28.453125 59.652344 36.492188 19.875 7.21875 41.238281 14.996094 41.238281 14.996094 41.539062 15.125 69.183593 54.613281 69.179687 98.820312-.003906 50.316406 0 107.929688 0 107.929688h39.992188s0-98.746094 0-107.929688c0-44.207031 27.640625-83.695312 69.179687-98.820312 0 0 21.363281-7.777344 41.234375-14.996094 22.132813-8.039063 42.421875-20.449219 59.65625-36.492188 35.746094-33.269531 56.015625-79.929687 55.933594-128.761718l-.011719-6.316407-28.792969 30.015625c-43 44.824219-96.574218 78.121094-155.800781 96.835938zm0 0" fill="#ba87d8"/><path d="m256 72.148438c-46.566406 20.921874-78.992188 48.640624-78.992188 103 0 54.363281 42.425782 89.515624 78.992188 156.109374 33-69.117187 78.992188-101.746093 78.992188-156.109374 0-54.359376-32.425782-82.078126-78.992188-103zm0 0" fill="#ba87d8"/><path d="m236.003906 502.460938v-10.234376c0-28.667968 13.277344-55.722656 35.957032-73.257812 6.441406-4.980469 12.199218-10.789062 17.121093-17.273438l25.25-33.269531v29.945313c0 38.296875-13.917969 75.292968-39.164062 104.09375h-39.164063zm0 0" fill="#cbe558"/><path d="m511.988281 109.128906c-.007812-4.082031-2.488281-7.746094-6.277343-9.265625-3.785157-1.519531-8.113282-.582031-10.9375 2.359375l-28.792969 30.015625c-8.761719 9.132813-18 17.777344-27.652344 25.914063 7.144531-17.3125 13.710937-39.75 16.398437-67.261719.957032-9.84375-2.652343-19.351563-9.910156-26.082031-7.261718-6.730469-17.019531-9.617188-26.773437-7.914063-33.480469 5.84375-59.574219 21.160157-77.246094 34.945313-2.195313-18.691406-8.632813-34.808594-19.53125-48.9375-11.683594-15.144532-28.023437-27.597656-51.425781-39.183594-8.664063-4.292969-19.011719-4.292969-27.679688 0-23.402344 11.585938-39.742187 24.039062-51.425781 39.183594-10.898437 14.128906-17.335937 30.246094-19.53125 48.9375-17.671875-13.785156-43.765625-29.101563-77.246094-34.945313-9.753906-1.703125-19.511719 1.183594-26.773437 7.914063-7.257813 6.730468-10.867188 16.238281-9.90625 26.082031 2.683594 27.511719 9.253906 49.949219 16.394531 67.261719-9.652344-8.136719-18.890625-16.78125-27.652344-25.914063l-28.792969-30.015625c-2.824218-2.945312-7.152343-3.875-10.9375-2.359375-3.785156 1.519531-6.273437 5.183594-6.2773432 9.265625l-.0117188 6.3125c-.0859375 51.445313 21.464844 101.050782 59.117188 136.101563 18.320312 17.050781 39.535156 30.027343 63.058593 38.570312 19.867188 7.21875 41.226563 14.996094 41.226563 14.996094 37.449218 13.632813 62.605468 49.570313 62.601562 89.421875-.003906 47.960938 0 102.546875 0 107.558594v.371094c0 5.523437 4.476563 10 10 10 5.519532 0 10-4.476563 10-10 0 0 0-.125 0-.371094v-9.863282c0-25.390624 11.988282-49.816406 32.074219-65.347656 7.132813-5.515625 13.515625-11.953125 18.96875-19.136718l7.285156-9.597657v.226563c0 35.886718-13.03125 70.511718-36.683593 97.5-3.640626 4.152344-3.226563 10.472656.925781 14.113281 1.898437 1.664063 4.25 2.476563 6.589843 2.476563 2.777344 0 5.546876-1.152344 7.519532-3.40625 26.855468-30.636719 41.644531-69.945313 41.644531-110.683594v-29.945313c0-4.292969-2.738281-8.109375-6.808594-9.476562-4.074219-1.371094-8.5625.011719-11.15625 3.429687l-20.1875 26.601563c2.210938-37.605469 26.722657-70.875 62.421875-83.871094 0 0 17.222656-6.269531 35.121094-12.777344 5.191406-1.882812 7.871094-7.621093 5.984375-12.8125-1.886719-5.191406-7.625-7.867187-12.8125-5.984375-17.90625 6.507813-35.136719 12.78125-35.136719 12.78125-45.3125 16.5-75.761718 59.988282-75.761718 108.214844v16.40625c-.050782.039062-.097657.082031-.148438.121094-7.59375 5.871094-14.25 12.769531-19.84375 20.410156 0-12.125 0-24.742188 0-36.9375.003906-48.226562-30.4375-91.714844-75.757812-108.214844 0 0-21.367188-7.78125-41.242188-15-20.984375-7.625-39.914062-19.203125-56.257812-34.414062-28.75-26.757813-46.972657-63.027344-51.585938-101.695313l10.429688 10.875c20.625 21.5 43.730468 40.472657 68.695312 56.539063.421875.316406.863281.59375 1.320312.832031 27.085938 17.277344 56.34375 31.136719 86.996094 41.105469 6.722656 11.441406 14.542969 22.863281 22.753906 34.847656 11.269532 16.457031 24.046876 35.109375 35.882813 56.664062 1.757813 3.207032 5.121094 5.1875 8.765625 5.1875.09375 0 .1875 0 .28125-.003906 3.75-.105468 7.125-2.300781 8.742188-5.6875 12.359374-25.894531 26.898437-46.964844 39.730468-65.554687 5.851563-8.484375 11.484375-16.652344 16.59375-24.785157 31.398438-10.011718 61.355469-24.109374 89.050782-41.769531.457031-.242187.894531-.519531 1.316406-.835937 24.96875-16.066406 48.070312-35.039063 68.695312-56.539063l10.421875-10.863281c-4.484375 37.355469-21.726562 72.667969-48.847656 99.082031-3.953125 3.855469-4.039063 10.1875-.183594 14.140625 1.957031 2.011719 4.558594 3.023438 7.164063 3.023438 2.511718 0 5.03125-.941406 6.976562-2.835938 35.707032-34.789062 56.140625-83.332031 56.058594-133.1875zm-265.988281-84.902344v14.589844c0 5.519532 4.476562 10 10 10s10-4.480468 10-10v-14.589844c38.597656 20.394532 55.363281 45.125 55.652344 81.726563-.363282-.441406-.707032-.890625-1.082032-1.328125-13.597656-15.949219-32.808593-29.167969-60.472656-41.597656-2.605468-1.171875-5.589844-1.171875-8.195312 0-27.660156 12.429687-46.875 25.648437-60.472656 41.597656-.371094.4375-.71875.886719-1.082032 1.328125.289063-36.601563 17.054688-61.332031 55.652344-81.726563zm-133.171875 162.667969c-4.792969-5.855469-28.300781-37.054687-35.019531-92.269531l3.679687 4.488281c16.4375 20.042969 36.105469 36.859375 58.453125 49.988281 1.589844.9375 3.332032 1.378907 5.054688 1.378907 3.429687 0 6.769531-1.761719 8.632812-4.933594 2.796875-4.761719 1.203125-10.890625-3.558594-13.6875-20.308593-11.933594-38.179687-27.214844-53.117187-45.429687l-8.195313-9.988282c.585938.011719 1.171876.050782 1.761719.152344 45.839844 8.003906 76.699219 36.960938 87.386719 48.453125-7.296875 14.679687-10.898438 31.242187-10.898438 50.101563 0 15.738281 3.269532 29.96875 8.699219 43.59375-21.960937-8.542969-43.03125-19.230469-62.878906-31.847657zm175.464844 71.757813c-10.449219 15.144531-22 31.882812-32.8125 51.679687-9.425781-15.648437-18.960938-29.574219-27.628907-42.226562-22.820312-33.320313-40.84375-59.636719-40.84375-92.953125 0-32.761719 12.101563-56.296875 40.414063-75.910156-8.550781 20.476562-12.417969 44.875-12.417969 75.910156 0 5.523437 4.476563 10 9.996094 10 5.523438 0 10-4.476563 10-10 0-46.109375 9.71875-70.605469 21-86.835938 11.28125 16.230469 21 40.726563 21 86.835938 0 5.523437 4.476562 10 10 10 5.519531 0 10-4.476563 10-10 0-31.035156-3.871094-55.433594-12.421875-75.910156 28.3125 19.613281 40.417969 43.148437 40.417969 75.910156 0 30.316406-16.195313 53.785156-36.703125 83.5zm45.792969-133.625c10.625-11.484375 41.324218-40.390625 87.394531-48.433594.589843-.101562 1.175781-.140625 1.761719-.152344l-8.191407 9.988282c-14.9375 18.214843-32.8125 33.496093-53.121093 45.429687-4.761719 2.796875-6.351563 8.925781-3.554688 13.6875 1.863281 3.171875 5.199219 4.9375 8.628906 4.9375 1.722656 0 3.464844-.445313 5.058594-1.378906 22.347656-13.132813 42.011719-29.949219 58.449219-49.992188l3.679687-4.484375c-6.699218 54.867188-30.289062 86.414063-35.039062 92.28125-20.085938 12.765625-41.421875 23.558594-63.664063 32.148438 5.886719-13.574219 9.503907-27.816406 9.503907-43.90625 0-18.871094-3.601563-35.441406-10.90625-50.125zm0 0"/><path d="m417.183594 255.800781c-2.632813 0-5.210938 1.070313-7.070313 2.929688s-2.929687 4.441406-2.929687 7.070312c0 2.640625 1.070312 5.210938 2.929687 7.070313s4.4375 2.929687 7.070313 2.929687c2.640625 0 5.207031-1.070312 7.070312-2.929687 1.867188-1.859375 2.9375-4.429688 2.9375-7.070313 0-2.628906-1.070312-5.210937-2.9375-7.070312-1.863281-1.859375-4.429687-2.929688-7.070312-2.929688zm0 0"/></svg>