<svg height="512pt" viewBox="0 -50 512.00413 512" width="512pt" xmlns="http://www.w3.org/2000/svg"><g fill="#ffcdac"><path d="m121.253906 215.246094 54.863282 72.632812 91.242187 65.3125 42.78125-3.921875 41.464844-74.550781 23.453125-47.894531-12.980469-45.917969-64.976563-31.414062-61.410156 5.625s-23.554687-24.054688-40.726562-11.90625c-17.167969 12.144531-73.710938 72.035156-73.710938 72.035156zm0 0"/><path d="m119.160156 246.898438-8.457031-8.28125c-4.898437-4.898438-7.652344-11.542969-7.652344-18.46875 0-6.929688-2.75-13.574219-7.648437-18.472657l-48.277344-48.273437 94.429688-94.425782 34.460937 34.464844c10.957031 10.953125 27.070313 14.957032 41.878906 10.398438 8.117188-2.496094 16.800781-2.464844 24.898438.09375l22.316406 7.160156"/><path d="m170.5625 259.515625-43.246094 43.242187c-8.179687 8.179688-21.4375 8.179688-29.613281 0l-2.074219-2.070312c-8.175781-8.175781-8.175781-21.4375 0-29.613281l43.246094-43.246094c8.179688-8.175781 21.4375-8.175781 29.613281 0l2.074219 2.070313c8.175781 8.179687 8.175781 21.4375 0 29.617187zm0 0"/><path d="m202.957031 290.535156-43.246093 43.246094c-8.175782 8.175781-21.4375 8.175781-29.613282 0l-2.070312-2.074219c-8.179688-8.175781-8.179688-21.433593 0-29.613281l43.242187-43.246094c8.179688-8.175781 21.4375-8.175781 29.617188 0l2.070312 2.074219c8.175781 8.175781 8.175781 21.433594 0 29.613281zm0 0"/><path d="m236.058594 320.855469-43.246094 43.242187c-8.175781 8.179688-21.4375 8.179688-29.613281 0l-2.070313-2.070312c-8.179687-8.175782-8.179687-21.433594 0-29.613282l43.242188-43.246093c8.179687-8.175781 21.4375-8.175781 29.613281 0l2.074219 2.070312c8.175781 8.179688 8.175781 21.4375 0 29.617188zm0 0"/><path d="m235.691406 321.507812c8.75-8.75 22.9375-8.75 31.683594 0l41.175781 41.171876c8.75 8.75 8.75 22.9375 0 31.6875s-22.9375 8.75-31.683593 0l-25.28125-25.28125"/><path d="m298.035156 288.84375 41.171875 41.171875c8.75 8.75 8.75 22.9375 0 31.6875-8.75 8.746094-22.933593 8.746094-31.683593 0l-40.09375-40.078125"/><path d="m268.394531 352.15625-43.246093 43.246094c-8.179688 8.175781-21.4375 8.175781-29.613282 0l-2.074218-2.074219c-8.175782-8.175781-8.175782-21.433594 0-29.613281l43.246093-43.242188c8.179688-8.179687 21.4375-8.179687 29.613281 0l2.074219 2.070313c8.175781 8.175781 8.175781 21.433593 0 29.613281zm0 0"/><path d="m360.648438 224.546875 41.175781 41.171875c8.75 8.75 8.75 22.9375 0 31.683594-8.75 8.75-22.9375 8.75-31.683594 0l-41.175781-41.171875"/><path d="m328.789062 256.160156 41.171876 41.175782c8.75 8.75 8.75 22.933593 0 31.683593-8.746094 8.75-22.933594 8.75-31.683594 0l-41.175782-41.171875"/><path d="m398.203125 262.097656c7.667969-7.324218 11.769531-17.3125 12.273437-27.902344l1.046876-21.9375c.476562-9.992187 4.5625-19.472656 11.5-26.679687l38.777343-40.289063-88.78125-93.285156-37.554687 35.292969c-10.320313 9.695313-24.113282 14.554687-38.265625 14.167969-11.421875-.3125-22.640625 3.042968-32.015625 9.574218l-.074219.054688c-4.398437 3.0625-8.53125 6.488281-12.359375 10.234375l-47.300781 46.304687c-6.789063 6.644532-8.890625 17.308594-4.847657 25.949219 3.414063 7.304688 10.65625 12.527344 18.5625 14.121094 10.160157 2.046875 19.101563-2.410156 27.59375-7.386719 8.316407-4.871094 13.863282-13.160156 21.503907-18.894531 5.304687-3.984375 11.847656-6.613281 18.515625-6.871094 6.910156-.273437 14.226562 2.554688 20.65625 4.808594 8.707031 3.054687 16.191406 7.855469 22.703125 14.4375 0 0 68.066406 68.300781 68.066406 68.300781zm0 0"/></g><path d="m54.570312 145.957031 85.035157-85.035156c9.910156-9.910156 9.910156-25.980469 0-35.890625l-.824219-.824219c-9.910156-9.910156-25.980469-9.910156-35.890625 0l-85.132813 85.132813c-9.910156 9.910156-9.910156 25.980468 0 35.890625l.824219.824219c9.949219 9.949218 26.09375 9.90625 35.988281-.097657zm0 0" fill="#ff9155"/><path d="m425.757812 32.238281-13.628906-14.304687c-9.667968-10.148438-25.730468-10.539063-35.878906-.871094l-.84375.804688c-10.148438 9.667968-10.539062 25.730468-.871094 35.878906l83.042969 87.171875c9.667969 10.148437 25.734375 10.539062 35.882813.871093l.84375-.804687c10.1875-9.707031 10.535156-25.84375.777343-35.980469l-13.898437-14.835937" fill="#07689f"/><path d="m306.160156 226.71875c-2.089844-5.152344-7.960937-7.640625-13.121094-5.546875-5.152343 2.089844-7.636718 7.964844-5.546874 13.117187l.140624.351563c1.589844 3.914063 5.359376 6.289063 9.339844 6.289063 1.261719 0 2.542969-.238282 3.785156-.742188 5.152344-2.089844 7.636719-7.964844 5.546876-13.117188zm0 0"/><path d="m502.136719 98.070312-13.851563-14.789062c-3.800781-4.058594-10.175781-4.269531-14.238281-.464844-4.058594 3.800782-4.269531 10.175782-.464844 14.238282l13.894531 14.835937c.03125.035156.0625.066406.097657.101563 2.84375 2.957031 4.363281 6.84375 4.277343 10.945312-.089843 4.105469-1.777343 7.921875-4.746093 10.75l-.84375.808594c-2.960938 2.820312-6.847657 4.308594-10.929688 4.21875-3.695312-.089844-7.15625-1.476563-9.871093-3.925782l-85.035157-89.347656c-4.605469-6.113281-4-14.875 1.675781-20.28125l.84375-.804687c6.113282-5.820313 15.820313-5.585938 21.640626.523437l13.628906 14.304688c3.832031 4.027344 10.210937 4.1875 14.238281.347656 4.03125-3.835938 4.183594-10.214844.347656-14.242188l-13.625-14.304687c-13.488281-14.152344-35.972656-14.699219-50.121093-1.21875l-.847657.808594c-6.855469 6.53125-10.757812 15.339843-10.988281 24.808593-.125 5.152344.847656 10.164063 2.8125 14.765626l-31.714844 29.808593c-8.195312 7.699219-19.226562 11.746094-31.09375 11.4375-11.777344-.335937-23.570312 2.714844-33.78125 8.664063l-17.863281-5.734375c-10.097656-3.1875-20.78125-3.226563-30.894531-.113281-11.269532 3.46875-23.453125.445312-31.792969-7.894532l-29.023437-29.027344c1.960937-4.449218 2.996093-9.300781 2.996093-14.3125 0-9.46875-3.6875-18.375-10.382812-25.070312l-.824219-.824219c-13.824219-13.824219-36.316406-13.820312-50.136719 0l-85.132812 85.132813c-6.699219 6.695312-10.386719 15.597656-10.386719 25.066406 0 9.472656 3.6875 18.375 10.382812 25.070312l.824219.824219c6.699219 6.699219 15.597657 10.382813 25.066407 10.382813h.097656c2.003906-.003906 3.976562-.175782 5.914062-.5l45.742188 45.742187c3.03125 3.03125 4.699218 7.058594 4.699218 11.347657 0 9.667968 3.765626 18.757812 10.601563 25.59375.027344.023437.050781.050781.074219.074218l1.511718 1.480469-16.65625 16.65625c-12.09375 12.09375-12.09375 31.765625 0 43.855469l2.070313 2.074218c5.886719 5.890626 13.574219 8.910157 21.304687 9.0625.488282 7.515626 3.644532 14.511719 9.019532 19.886719l2.070312 2.070313c5.859375 5.859375 13.648438 9.085937 21.933594 9.085937h.136719c.636719 7.238281 3.761719 13.960938 8.960937 19.164063l2.074219 2.070312c5.695313 5.695313 13.21875 8.90625 21.246094 9.078125.417969 7.339844 3.421875 14.558594 9.019531 20.15625l2.070312 2.070313c5.855469 5.855468 13.644532 9.082031 21.929688 9.082031s16.070312-3.226563 21.929688-9.082031l19.253906-19.253906 18.21875 18.21875c6.132812 6.132812 14.289062 9.511718 22.964844 9.511718 8.675781 0 16.832031-3.378906 22.964843-9.511718 6.136719-6.132813 9.511719-14.289063 9.511719-22.964844 0-.082032 0-.160156 0-.238282 7.992188-.4375 15.441406-3.757812 21.148438-9.460937 6.398437-6.398437 9.5625-14.824219 9.496093-23.230469 7.738281-.402344 15.359375-3.550781 21.257813-9.449218 6.117187-6.121094 9.277344-14.09375 9.484375-22.128907 8.117187-.144531 16.195312-3.308593 22.378906-9.488281 11.671875-11.675781 12.582031-30.101562 2.730469-42.832031 5.296875-7.75 8.382812-17.058594 8.859375-27.019531l1.042969-21.941407c.359374-7.554687 3.449218-14.71875 8.695312-20.171875l34.242188-35.574218c3.367187 1.140624 6.921874 1.777343 10.574218 1.867187.296875.007813.589844.011719.882813.011719 9.140625 0 17.789062-3.457032 24.429687-9.78125l.847656-.808594c6.878907-6.554688 10.785157-15.398438 10.988282-24.902344.199218-9.484375-3.300782-18.464844-9.859375-25.308594zm-465.820313 45.34375h-.039062c-4.089844 0-7.929688-1.589843-10.824219-4.484374l-.824219-.824219c-2.890625-2.890625-4.480468-6.734375-4.480468-10.820313 0-4.089844 1.589843-7.933594 4.484374-10.824218l85.128907-85.132813c2.984375-2.984375 6.90625-4.472656 10.824219-4.472656 3.917968 0 7.839843 1.488281 10.824218 4.472656l.820313.824219c5.96875 5.96875 5.96875 15.679687 0 21.644531l-85.242188 85.242187c-2.863281 2.8125-6.644531 4.363282-10.671875 4.375zm66.1875 150.152344c-2.054687-2.054687-3.183594-4.78125-3.183594-7.683594 0-2.902343 1.128907-5.632812 3.183594-7.683593l43.246094-43.246094c2.050781-2.054687 4.777344-3.183594 7.683594-3.183594 2.902344 0 5.628906 1.128907 7.679687 3.179688l2.074219 2.074219c2.050781 2.050781 3.183594 4.78125 3.183594 7.683593 0 2.902344-1.132813 5.632813-3.183594 7.683594l-43.246094 43.246094c-4.238281 4.238281-11.132812 4.238281-15.367187 0zm34.464844 33.089844-2.070312-2.070312c-2.054688-2.054688-3.183594-4.78125-3.183594-7.683594 0-2.90625 1.128906-5.632813 3.183594-7.683594l43.246093-43.246094c2.050781-2.054687 4.777344-3.183594 7.683594-3.183594 2.902344 0 5.628906 1.128907 7.683594 3.183594l2.070312 2.070313c4.238281 4.238281 4.238281 11.132812 0 15.367187l-43.246093 43.246094c-2.050782 2.054688-4.78125 3.183594-7.683594 3.183594s-5.632813-1.128906-7.683594-3.183594zm31.027344 28.25c-2.050782-2.054688-3.179688-4.78125-3.179688-7.683594 0-2.90625 1.128906-5.632812 3.179688-7.683594l43.246094-43.246093c2.121093-2.121094 4.902343-3.179688 7.6875-3.179688 2.78125 0 5.5625 1.058594 7.679687 3.175781l2.074219 2.074219c2.050781 2.050781 3.183594 4.78125 3.183594 7.683594s-1.132813 5.632813-3.183594 7.683594l-43.246094 43.246093c-2.050781 2.054688-4.78125 3.183594-7.683594 3.183594s-5.632812-1.128906-7.683594-3.183594zm49.777344 33.371094c-2.050782 2.054687-4.78125 3.183594-7.683594 3.183594s-5.632813-1.128907-7.6875-3.183594l-2.070313-2.070313c-2.050781-2.050781-3.179687-4.78125-3.179687-7.683593 0-2.902344 1.128906-5.632813 3.179687-7.683594l41.863281-41.859375c.125-.113281.246094-.230469.367188-.351563 2.328125-2.328125 5.425781-3.609375 8.71875-3.609375 3.082031 0 5.988281 1.121094 8.257812 3.171875.164063.191406.335938.375.515626.558594l1.539062 1.535156c3.652344 4.265625 3.460938 10.710938-.574219 14.746094zm83.402343-1.035156c-2.328125 2.332031-5.425781 3.613281-8.71875 3.613281-3.296875 0-6.390625-1.28125-8.71875-3.613281l-18.21875-18.21875 9.746094-9.742188c2.695313-2.695312 4.789063-5.769531 6.28125-9.050781l18.601563 18.59375c.347656.347656.703124.683593 1.0625 1.015625 2.304687 2.324218 3.578124 5.40625 3.578124 8.683594 0 3.292968-1.285156 6.390624-3.613281 8.71875zm93.277344-96.960938c-4.808594 4.808594-12.632813 4.808594-17.441406 0l-41.175781-41.171875c-1.046876-1.050781-2.269532-1.820313-3.574219-2.308594-3.625-1.4375-7.914063-.695312-10.847657 2.238281-3.933593 3.933594-3.933593 10.3125 0 14.246094l41.175782 41.171875c4.804687 4.808594 4.804687 12.632813 0 17.441407-4.808594 4.808593-12.632813 4.808593-17.441406 0l-41.171876-41.175782c-3.933593-3.929687-10.308593-3.933594-14.246093 0-3.933594 3.933594-3.933594 10.3125 0 14.246094l.269531.273438c.207031.25.425781.492187.660156.726562l41.171875 41.171875c4.808594 4.808594 4.808594 12.632813 0 17.4375-2.328125 2.332031-5.425781 3.613281-8.71875 3.613281-2.984375 0-5.804687-1.050781-8.042969-2.984375l-40.824218-40.820312c-.207032-.210938-.417969-.414063-.628906-.617188l-.421876-.421875c-5.875-5.871094-13.535156-8.890625-21.246093-9.058594-.414063-7.347656-3.421875-14.570312-9.019531-20.167968l-2.070313-2.074219c-5.859375-5.855469-13.648437-9.085937-21.929687-9.085937-.046876 0-.09375.003906-.140626.003906-.636718-7.242188-3.761718-13.964844-8.964843-19.167969l-2.070313-2.070313c-5.886718-5.886718-13.570312-8.90625-21.304687-9.0625-.484375-7.511718-3.644531-14.511718-9.015625-19.882812l-2.074219-2.074219c-12.089844-12.09375-31.765625-12.09375-43.859375 0l-12.339844 12.339844-1.621094-1.585937c-3.007812-3.027344-4.667968-7.042969-4.667968-11.3125 0-9.671876-3.765625-18.757813-10.597656-25.59375l-41.152344-41.152344 80.179687-80.183594 27.34375 27.34375c13.628907 13.628906 33.539063 18.574219 51.964844 12.90625 6.1875-1.902344 12.722656-1.878906 18.855469.054688l4.976562 1.597656-46.289062 45.3125c-9.867188 9.660156-12.714844 25.046875-6.925782 37.417968 4.632813 9.90625 14.480469 17.46875 25.695313 19.726563 13.773437 2.777344 25.121094-2.96875 34.675781-8.570313 5.894532-3.453124 10.476563-8.09375 14.519532-12.191406 2.707031-2.742187 5.257812-5.328125 7.9375-7.339844 3.949218-2.964843 8.519531-4.691406 12.867187-4.859374 4.40625-.167969 9.984375 1.792968 15.359375 3.695312l1.570312.554688c7.195313 2.523437 13.367188 6.453124 18.898438 12.042968l29.621094 29.722656c.273437.359376.578125.707032.90625 1.039063l41.175781 41.171875c4.804687 4.804688 4.804687 12.628906 0 17.4375zm21.058594-111.6875c-8.628907 8.96875-13.707031 20.753906-14.300781 33.183594l-1.046876 21.9375c-.226562 4.695312-1.355468 9.121094-3.285156 13.035156-57.726562-57.925781-59.785156-59.992188-59.835937-60.039062-7.597657-7.679688-16.523438-13.347657-26.523438-16.855469l-1.515625-.535157c-6.492187-2.296874-14.566406-5.179687-22.871094-4.835937-8.394531.324219-16.980468 3.480469-24.171874 8.878906-3.875 2.910157-7.078126 6.15625-10.179688 9.296875-3.480469 3.523438-6.765625 6.851563-10.367188 8.964844-8.308593 4.867188-14.328124 7.445312-20.511718 6.199219-4.992188-1.003907-9.480469-4.347657-11.429688-8.515625-2.1875-4.675782-1.023437-10.765625 2.773438-14.480469l47.296875-46.304687c3.410156-3.332032 7.117187-6.40625 11.101562-9.1875.023438-.015626.046875-.03125.070313-.050782 7.550781-5.253906 16.769531-8.011718 25.957031-7.753906 17.175781.476562 33.34375-5.527344 45.441406-16.894531l30.1875-28.371094 75.273438 79.015625zm0 0"/><path d="m258.035156 75.097656c5.5625 0 10.074219-4.511718 10.074219-10.074218v-22.03125c0-5.5625-4.511719-10.070313-10.074219-10.070313s-10.074218 4.507813-10.074218 10.070313v22.03125c0 5.5625 4.511718 10.074218 10.074218 10.074218zm0 0"/><path d="m216.039062 68.921875c1.96875 1.964844 4.546876 2.949219 7.125 2.949219 2.578126 0 5.152344-.984375 7.121094-2.949219 3.933594-3.933594 3.933594-10.3125 0-14.25l-15.578125-15.578125c-3.933593-3.929688-10.3125-3.929688-14.246093 0-3.933594 3.933594-3.933594 10.3125 0 14.25zm0 0"/><path d="m291.863281 71.871094c2.578125 0 5.15625-.984375 7.125-2.949219l15.578125-15.578125c3.933594-3.933594 3.933594-10.3125 0-14.25-3.9375-3.929688-10.3125-3.929688-14.246094 0l-15.578124 15.578125c-3.933594 3.933594-3.933594 10.3125 0 14.25 1.96875 1.964844 4.542968 2.949219 7.121093 2.949219zm0 0"/><path d="m444.886719 65.8125c1.585937 3.914062 5.355469 6.289062 9.339843 6.289062 1.257813 0 2.539063-.238281 3.78125-.742187 5.15625-2.089844 7.640626-7.964844 5.546876-13.121094l-.140626-.347656c-2.089843-5.15625-7.960937-7.640625-13.121093-5.550781-5.15625 2.09375-7.636719 7.964844-5.546875 13.121094zm0 0"/></svg>