<?xml version="1.0" encoding="iso-8859-1"?>
<!-- Generator: Adobe Illustrator 19.0.0, SVG Export Plug-In . SVG Version: 6.00 Build 0)  -->
<svg xmlns="http://www.w3.org/2000/svg" xmlns:xlink="http://www.w3.org/1999/xlink" version="1.1" id="Layer_1" x="0px" y="0px" viewBox="0 0 512 512" style="enable-background:new 0 0 512 512;" xml:space="preserve" width="512" height="512">
<g>
	<g>
		<path style="fill-rule:evenodd;clip-rule:evenodd;fill:#ADAAAF;" d="M105.294,161.336h322.804v-42.861H10.084v71.43h73.787v-7.122    C83.872,171.012,93.506,161.336,105.294,161.336L105.294,161.336z"/>
	</g>
	<g>
		<path style="fill-rule:evenodd;clip-rule:evenodd;fill:#B0E7F8;" d="M10.084,118.475h418.014V89.029    c0-11.801-9.633-21.446-21.421-21.446H31.507c-11.787,0-21.422,9.646-21.422,21.446V118.475z"/>
	</g>
	<g>
		<path style="fill-rule:evenodd;clip-rule:evenodd;fill:#52CBF0;" d="M105.294,444.417h375.199c11.76,0,21.422-9.645,21.422-21.446    V182.782c0-11.77-9.662-21.446-21.422-21.446h-52.395H105.294c-11.788,0-21.423,9.676-21.423,21.446v7.122v160.73v72.336    C83.872,434.772,93.506,444.417,105.294,444.417L105.294,444.417z"/>
	</g>
	<g>
		<path style="fill-rule:evenodd;clip-rule:evenodd;fill:#B0E7F8;" d="M31.507,350.635h52.365v-160.73H10.084v139.283    C10.084,340.988,19.72,350.635,31.507,350.635L31.507,350.635z"/>
	</g>
	<g>
		<path style="fill-rule:evenodd;clip-rule:evenodd;fill:#FFE6C0;" d="M139.184,278.07h24.143v-34.185v-34.153h-24.143    c-2.834,0-5.157,2.326-5.157,5.164v57.982C134.027,275.744,136.35,278.07,139.184,278.07L139.184,278.07z"/>
	</g>
	<g>
		<path style="fill-rule:evenodd;clip-rule:evenodd;fill:#FFE6C0;" d="M163.327,278.07h45.48c2.833,0,5.157-2.326,5.157-5.191    v-28.993h-50.637V278.07z"/>
	</g>
	<g>
		<path style="fill-rule:evenodd;clip-rule:evenodd;fill:#FFE6C0;" d="M163.327,243.886h50.637v-28.989    c0-2.838-2.324-5.164-5.157-5.164h-45.48V243.886z"/>
	</g>
	<g>
		<path style="fill-rule:evenodd;clip-rule:evenodd;fill:#FFE6C0;" d="M321.612,247.916c0,16.65,13.487,30.154,30.121,30.154    s30.122-13.504,30.122-30.154c0-16.682-13.488-30.184-30.122-30.184S321.612,231.234,321.612,247.916L321.612,247.916z"/>
	</g>
	<g>
		<path style="fill-rule:evenodd;clip-rule:evenodd;fill:#F46370;" d="M381.855,247.916c0,16.65,13.488,30.154,30.12,30.154    c5.923,0,11.477-1.731,16.123-4.709c8.416-5.333,13.998-14.752,13.998-25.445c0-10.724-5.582-20.142-13.998-25.475    c-4.647-2.978-10.2-4.709-16.123-4.709C395.344,217.732,381.855,231.234,381.855,247.916L381.855,247.916z"/>
	</g>
	<g>
		<path d="M480.493,151.254h-42.31V89.029c0-17.385-14.133-31.529-31.506-31.529H31.507C14.134,57.5,0,71.645,0,89.029v240.158    c0,17.386,14.134,31.529,31.507,31.529h42.28v62.254c0,17.385,14.134,31.529,31.507,31.529h131.99    c5.57,0,10.085-4.516,10.085-10.083c0-5.569-4.515-10.084-10.085-10.084h-131.99c-6.251,0-11.338-5.097-11.338-11.362V182.782    c0-6.265,5.087-11.362,11.338-11.362h375.199c6.146,0,11.338,5.204,11.338,11.362v240.189c0,6.158-5.192,11.362-11.338,11.362    H332.806c-5.569,0-10.085,4.515-10.085,10.084c0,5.567,4.516,10.083,10.085,10.083h147.688c17.373,0,31.507-14.145,31.507-31.529    V182.782C512,165.398,497.866,151.254,480.493,151.254z M31.507,77.667h375.171c6.251,0,11.337,5.097,11.337,11.362v19.362H20.169    V89.029C20.169,82.764,25.255,77.667,31.507,77.667z M31.507,340.551c-6.251,0-11.337-5.098-11.337-11.363V199.988h53.618v140.563    H31.507z M73.931,179.821H20.169v-51.263h397.845v22.695h-312.72C88.919,151.254,75.427,163.82,73.931,179.821z"/>
		<path d="M210.903,333.515h-73.844c-5.57,0-10.085,4.515-10.085,10.083c0,5.568,4.515,10.084,10.085,10.084h73.844    c5.57,0,10.085-4.516,10.085-10.084C220.988,338.029,216.473,333.515,210.903,333.515z"/>
		<path d="M236.891,343.598c0,5.568,4.515,10.084,10.085,10.084h76.932c5.569,0,10.085-4.516,10.085-10.084    c0-5.568-4.516-10.083-10.085-10.083h-76.932C241.405,333.515,236.891,338.029,236.891,343.598z"/>
		<path d="M210.903,378.789h-73.844c-5.57,0-10.085,4.515-10.085,10.084c0,5.568,4.515,10.084,10.085,10.084h73.844    c5.57,0,10.085-4.516,10.085-10.084C220.988,383.304,216.473,378.789,210.903,378.789z"/>
		<path d="M246.975,398.957h76.932c5.569,0,10.085-4.516,10.085-10.084c0-5.569-4.516-10.084-10.085-10.084h-76.932    c-5.57,0-10.085,4.515-10.085,10.084C236.891,394.441,241.405,398.957,246.975,398.957z"/>
		<path d="M362.841,333.515c-5.569,0-10.084,4.515-10.084,10.083c0,5.568,4.515,10.084,10.084,10.084h76.934    c5.569,0,10.085-4.516,10.085-10.084c0-5.568-4.516-10.083-10.085-10.083H362.841z"/>
		<path d="M293.077,434.333h-0.198c-5.569,0-10.084,4.515-10.084,10.084c0,5.567,4.515,10.083,10.084,10.083h0.198    c5.569,0,10.084-4.516,10.084-10.083C303.161,438.848,298.647,434.333,293.077,434.333z"/>
		<path d="M224.049,214.896c0-8.407-6.838-15.246-15.242-15.246h-69.622c-8.404,0-15.242,6.839-15.242,15.246v57.982    c0,8.424,6.837,15.275,15.242,15.275h69.622c8.404,0,15.242-6.852,15.242-15.275V214.896z M203.879,233.803h-30.467v-13.986    h30.467V233.803z M144.112,219.816h9.13v48.171h-9.13V219.816z M173.412,267.987V253.97h30.467v14.018H173.412z"/>
		<path d="M411.976,207.648c-11.981,0-22.749,5.283-30.12,13.637c-7.373-8.354-18.141-13.637-30.122-13.637    c-22.17,0-40.206,18.063-40.206,40.268c0,22.187,18.036,40.238,40.206,40.238c11.981,0,22.749-5.279,30.122-13.627    c7.371,8.348,18.139,13.627,30.12,13.627c22.17,0,40.206-18.051,40.206-40.238C452.182,225.712,434.146,207.648,411.976,207.648z     M351.733,267.987c-11.048,0-20.037-9.004-20.037-20.071c0-11.083,8.989-20.101,20.037-20.101s20.037,9.018,20.037,20.101    C371.771,258.983,362.781,267.987,351.733,267.987z M411.976,267.987c-11.048,0-20.036-9.004-20.036-20.071    c0-11.083,8.988-20.101,20.036-20.101c11.048,0,20.037,9.018,20.037,20.101C432.013,258.983,423.023,267.987,411.976,267.987z"/>
	</g>
</g>















</svg>
