<svg viewBox="-55 0 512 512.00252" xmlns="http://www.w3.org/2000/svg"><path d="m159.3125 414.613281c-22.546875 33.734375-15.570312 76.667969-15.570312 76.667969 36.957031 14.261719 77.898437 14.261719 114.855468 0 0 0 6.976563-42.941406-15.578125-76.675781" fill="#fcd888"/><path d="m236.804688 376.847656c153.039062-88.824218 125.046874-309.046875 125.046874-309.046875h-.007812c0 37.523438-71.941406 67.945313-160.679688 67.945313-88.734374 0-160.671874-30.417969-160.679687-67.941406-.070313.515624-27.796875 220.328124 125.046875 309.042968" fill="#ffd4b8"/><path d="m121.113281 160.957031c1.589844 72.671875 14.316407 194.355469 80.054688 219.289063 83.21875-31.5625 81.484375-179.644532 79.753906-216.171875" fill="#fcd888"/><path d="m240.078125 380.414062-1.78125-3.566406h-2.445313c-11.558593 0-22.667968 4.125-31.730468 11.917969 0 0-1.324219 1.171875-2.957032 2.546875-1.679687-1.425781-3.054687-2.597656-3.257812-2.800781-8.757812-7.539063-19.867188-11.664063-31.425781-11.664063h-2.445313l-1.78125 3.566406c-6.0625 12.121094-6.0625 26.585938 0 38.707032l1.78125 3.5625h2.445313c15.125 0 24.601562-5.855469 34.683593-14.460938 9.882813 8.453125 19.511719 14.460938 34.6875 14.460938h2.445313l1.78125-3.5625c6.058594-12.121094 6.058594-26.585938 0-38.707032zm0 0" fill="#70dbe0"/><path d="m292.347656 145.710938c-31.582031 54.699218 78.945313 54.699218 47.367188 0 31.578125 54.699218 86.84375-41.023438 23.683594-41.023438 63.160156 0 7.898437-95.71875-23.683594-41.023438 31.578125-54.695312-78.949219-54.695312-47.367188 0" fill="#ff6a81"/><path d="m109.992188 63.664062c31.578124-54.695312-78.949219-54.695312-47.371094 0-31.578125-54.695312-86.84375 41.023438-23.683594 41.023438-63.160156 0-7.894531 95.722656 23.683594 41.023438-31.578125 54.699218 78.949218 54.699218 47.371094 0" fill="#ff6a81"/><path d="m342.128906 104.6875c0 14.414062-11.683594 26.097656-26.097656 26.097656s-26.097656-11.683594-26.097656-26.097656c0-14.410156 11.683594-26.097656 26.097656-26.097656s26.097656 11.6875 26.097656 26.097656zm0 0" fill="#ffd4b8"/><path d="m112.402344 104.6875c0 14.414062-11.683594 26.097656-26.097656 26.097656-14.410157 0-26.09375-11.683594-26.09375-26.097656 0-14.410156 11.683593-26.097656 26.09375-26.097656 14.414062 0 26.097656 11.6875 26.097656 26.097656zm0 0" fill="#ffd4b8"/><path d="m227.519531 55.601562c35.136719-60.859374-87.839843-60.859374-52.703125 0-35.136718-60.859374-96.625 45.644532-26.351562 45.644532-70.273438 0-8.785156 106.5 26.351562 45.644531-35.136718 60.855469 87.839844 60.855469 52.703125 0 35.136719 60.855469 96.628907-45.644531 26.351563-45.644531 70.277344 0 8.785156-106.503906-26.351563-45.644532zm0 0" fill="#ff4f4f"/><path d="m230.207031 101.246094c0 16.035156-13 29.035156-29.039062 29.035156-16.035157 0-29.035157-13-29.035157-29.035156 0-16.039063 13-29.039063 29.035157-29.039063 16.039062 0 29.039062 13 29.039062 29.039063zm0 0" fill="#ffd4b8"/><path d="m201.167969 140.28125c-21.523438 0-39.035157-17.511719-39.035157-39.035156 0-21.527344 17.511719-39.039063 39.035157-39.039063 21.527343 0 39.039062 17.511719 39.039062 39.039063 0 21.523437-17.511719 39.035156-39.039062 39.035156zm0-58.074219c-10.496094 0-19.035157 8.539063-19.035157 19.039063 0 10.496094 8.539063 19.035156 19.035157 19.035156 10.496093 0 19.039062-8.539062 19.039062-19.035156 0-10.5-8.542969-19.039063-19.039062-19.039063zm0 0"/><path d="m201.167969 240.765625c-.660157 0-1.308594-.058594-1.960938-.1875-.636719-.132813-1.269531-.320313-1.867187-.570313-.601563-.25-1.179688-.5625-1.730469-.921874-.539063-.367188-1.0625-.777344-1.519531-1.25-.460938-.457032-.871094-.96875-1.242188-1.507813-.359375-.550781-.667968-1.132813-.917968-1.730469s-.441407-1.230468-.570313-1.871094c-.132813-.648437-.191406-1.300781-.191406-1.949218 0-.660156.058593-1.308594.191406-1.960938.128906-.640625.320313-1.269531.570313-1.867187.25-.601563.558593-1.183594.917968-1.730469.359375-.539062.78125-1.0625 1.242188-1.523438.46875-.457031.980468-.878906 1.519531-1.238281.550781-.359375 1.128906-.667969 1.730469-.917969.597656-.25 1.230468-.441406 1.867187-.570312 3.25-.652344 6.703125.410156 9.03125 2.726562.460938.460938.878907.980469 1.242188 1.523438.359375.550781.667969 1.128906.917969 1.730469.25.597656.441406 1.226562.570312 1.867187.128906.652344.199219 1.300782.199219 1.960938 0 .648437-.070313 1.300781-.199219 1.949218-.128906.640626-.320312 1.273438-.570312 1.871094s-.558594 1.179688-.917969 1.730469c-.363281.539063-.78125 1.050781-1.242188 1.507813-1.859375 1.871093-4.4375 2.929687-7.070312 2.929687zm0 0"/><path d="m393.066406 104.6875c4.554688-4.3125 7.574219-9.914062 8.753906-16.59375 3.382813-19.191406-10.210937-42.738281-28.523437-49.402344-6.375-2.320312-12.734375-2.507812-18.746094-.71875-1.457031-6.101562-4.800781-11.515625-9.996093-15.875-14.929688-12.527344-42.117188-12.527344-57.046876 0-4.90625 4.117188-8.15625 9.171875-9.730468 14.859375-4.007813-3.542969-8.496094-6.34375-13.277344-8.082031-7.261719-2.644531-14.507812-2.707031-21.324219-.390625-1.398437-7.058594-5.078125-13.304687-10.996093-18.269531-16.230469-13.621094-45.792969-13.621094-62.023438 0-5.917969 4.964844-9.59375 11.210937-10.996094 18.269531-6.8125-2.3125-14.0625-2.253906-21.320312.390625-4.785156 1.738281-9.273438 4.539062-13.277344 8.082031-1.574219-5.6875-4.828125-10.742187-9.734375-14.859375-14.925781-12.527344-42.117187-12.527344-57.042969 0-5.199218 4.359375-8.539062 9.773438-9.996094 15.875-6.011718-1.789062-12.371093-1.601562-18.746093.71875-18.3125 6.664063-31.90625 30.210938-28.523438 49.402344 1.179688 6.679688 4.195313 12.28125 8.75 16.59375-4.554687 4.3125-7.570312 9.914062-8.75 16.597656-3.382812 19.1875 10.210938 42.734375 28.523438 49.398438 1.234375.453125 2.46875.820312 3.699219 1.113281 9.339843 68.074219 37.835937 156.285156 118.75 208.195313-4.058594 10.183593-4.847657 21.40625-2.375 31.996093-22.207032 36.03125-15.550782 79.035157-15.246094 80.894531.570312 3.507813 2.957031 6.449219 6.269531 7.726563 19.675781 7.59375 40.351563 11.394531 61.027344 11.394531s41.351562-3.800781 61.027343-11.394531c3.3125-1.277344 5.699219-4.21875 6.269532-7.726563.300781-1.859374 6.960937-44.871093-15.253906-80.90625 2.472656-10.582031 1.679687-21.800781-2.375-31.980468 80.933593-51.914063 109.421874-140.136719 118.757812-208.203125 1.230469-.289063 2.464844-.660157 3.699219-1.109375 18.3125-6.664063 31.90625-30.210938 28.523437-49.398438-1.175781-6.683594-4.195312-12.285156-8.75-16.597656zm-244.601562-13.445312c-13.136719 0-20.519532-4.078126-21.941406-12.128907-2-11.34375 7.332031-27.507812 18.15625-31.445312 7.679687-2.796875 14.90625 1.554687 21.476562 12.933593 2.761719 4.78125 8.875 6.421876 13.660156 3.660157 3.207032-1.851563 5-5.214844 5-8.671875 0-1.695313-.433594-3.414063-1.339844-4.988282-6.570312-11.378906-6.726562-19.8125-.464843-25.066406 8.824219-7.398437 27.488281-7.402344 36.3125.003906 6.261719 5.253907 6.105469 13.6875-.464844 25.0625-.910156 1.574219-1.339844 3.292969-1.339844 4.988282-.003906 3.457031 1.789063 6.820312 5 8.671875 4.78125 2.761719 10.898438 1.125 13.660157-3.660157 6.570312-11.378906 13.796874-15.726562 21.476562-12.933593 10.820312 3.9375 20.15625 20.101562 18.15625 31.445312-1.421875 8.050781-8.800781 12.128907-21.941406 12.128907-5.523438 0-10 4.480468-10 10.003906 0 5.519531 4.476562 10 10 10 13.136718 0 20.519531 4.078125 21.941406 12.128906 2 11.34375-7.335938 27.507812-18.15625 31.445312-7.683594 2.796876-14.90625-1.554687-21.476562-12.933593-2.761719-4.78125-8.878907-6.421875-13.660157-3.660157-3.210937 1.855469-5.003906 5.214844-5 8.671876 0 1.699218.433594 3.414062 1.339844 4.988281 6.570313 11.378906 6.726563 19.8125.464844 25.066406-8.824219 7.402344-27.488281 7.402344-36.3125 0-6.261719-5.253906-6.105469-13.6875.464843-25.066406.910157-1.574219 1.339844-3.292969 1.339844-4.988281 0-3.457032-1.792968-6.816407-5-8.671876-4.78125-2.757812-10.898437-1.121093-13.660156 3.660157-6.570312 11.378906-13.796875 15.730469-21.476562 12.933593-10.824219-3.9375-20.152344-20.101562-18.152344-31.445312 1.417968-8.050781 8.800781-12.128906 21.9375-12.128906 5.523437 0 10-4.480469 10-10 0-5.523438-4.476563-10.003906-10-10.003906zm62.699218 272.863281v-96.332031c0-5.523438-4.476562-10-10-10-5.523437 0-10 4.476562-10 10v95.84375c-19.160156-13.601563-34.066406-39.660157-44.429687-77.742188-10.5-38.582031-14.199219-82.445312-15.347656-115.335938 2.074219 1.230469 4.230469 2.269532 6.453125 3.078126 7.261718 2.640624 14.507812 2.703124 21.320312.386718 1.402344 7.058594 5.078125 13.304688 10.996094 18.269532 8.117188 6.8125 19.5625 10.214843 31.011719 10.214843s22.898437-3.402343 31.011719-10.214843c5.917968-4.964844 9.597656-11.207032 10.996093-18.269532 6.8125 2.3125 14.0625 2.253906 21.324219-.386718 2.292969-.839844 4.523438-1.917969 6.660156-3.207032 1.164063 36.714844.054688 155.539063-59.996094 193.695313zm20.9375 48.417969c-9.699218-.851563-16.492187-5.101563-24.433593-11.898438-.371094-.316406-.757813-.601562-1.160157-.855469.382813-.242187.75-.511719 1.105469-.8125 1.515625-1.277343 2.785157-2.394531 3.070313-2.644531 6.238281-5.347656 13.582031-8.519531 21.425781-9.28125 3.359375 8.128906 3.355469 17.367188-.007813 25.492188zm-36.28125-12.753907c-.398437.25-.78125.53125-1.148437.84375-8.160156 6.964844-14.765625 11.09375-24.441406 11.917969-3.367188-8.128906-3.371094-17.367188-.015625-25.496094 7.722656.761719 15.066406 3.863282 21.015625 8.929688.449219.410156 1.269531 1.113281 3.464843 2.976562.359376.300782.734376.578125 1.125.828125zm-159.9375-247.878906c-9.339843-3.398437-17.390624-17.347656-15.667968-27.136719 1.179687-6.679687 7.476562-10.066406 18.722656-10.066406 5.523438 0 10-4.476562 10-10 0-5.519531-4.476562-10-10-10-11.246094 0-17.542969-3.386719-18.722656-10.066406-1.722656-9.785156 6.328125-23.734375 15.667968-27.132813 6.375-2.320312 12.457032 1.441407 18.078126 11.179688 2.761718 4.78125 8.875 6.421875 13.660156 3.660156 3.210937-1.855469 5.003906-5.214844 5-8.671875 0-1.695312-.429688-3.414062-1.339844-4.988281-5.621094-9.738281-5.835938-16.886719-.640625-21.246094 7.613281-6.390625 23.71875-6.390625 31.332031 0 5.195313 4.359375 4.980469 11.507813-.644531 21.246094-2.761719 4.78125-1.121094 10.898437 3.660156 13.660156.453125.257813.914063.480469 1.382813.664063-.039063.550781-.066406 1.097656-.085938 1.648437-5.722656-3.820313-12.597656-6.050781-19.980468-6.050781-19.902344 0-36.097657 16.195312-36.097657 36.101562 0 19.902344 16.195313 36.09375 36.097657 36.09375 7.679687 0 14.804687-2.410156 20.660156-6.511718.105468.601562.226562 1.199218.355468 1.796874-.796874.222657-1.582031.546876-2.332031.980469-4.78125 2.761719-6.421875 8.878907-3.660156 13.660157 5.621094 9.738281 5.839844 16.886718.644531 21.246093-7.613281 6.390625-23.71875 6.390625-31.332031 0-5.199219-4.359375-4.980469-11.507812.640625-21.246093.910156-1.574219 1.339844-3.292969 1.339844-4.988282 0-3.457031-1.792969-6.820312-5-8.671875-4.785156-2.761719-10.898438-1.121093-13.660156 3.660157-5.621094 9.738281-11.703126 13.5-18.078126 11.179687zm66.519532-47.203125c0 8.875-7.21875 16.097656-16.097656 16.097656-8.875 0-16.09375-7.222656-16.09375-16.097656s7.21875-16.097656 16.09375-16.097656c8.878906 0 16.097656 7.222656 16.097656 16.097656zm-47.398438 79.976562c.859375.90625 1.785156 1.78125 2.78125 2.613282 7.460938 6.265625 17.992188 9.394531 28.519532 9.394531 9.367187 0 18.730468-2.476563 25.9375-7.429687 1.839843 31.125 6.046874 68.277343 15.191406 101.886718 8.230468 30.25 19.425781 54.011719 33.460937 71.121094-67.59375-44.152344-95.136719-116.890625-105.890625-177.585938zm194.292969 299.355469c-31.257813 10.640625-65.015625 10.636719-96.273437-.007812-.726563-9.949219-.910157-31.429688 8.027343-51.78125.949219.296875 1.953125.453125 2.984375.453125h2.441406c14.542969 0 24.90625-4.503906 34.683594-11.675782 8.917969 6.527344 19.644532 11.675782 34.691406 11.675782h2.445313c1.027344 0 2.027344-.15625 2.980469-.453125 8.867187 20.285156 8.71875 41.824219 8.019531 51.789062zm-2.289063-125.53125c37.328126-45.6875 44.105469-122.089843 44.417969-168.375 7.011719 4.375 15.808594 6.558594 24.605469 6.558594 10.53125 0 21.058594-3.128906 28.523438-9.394531.992187-.832032 1.921874-1.707032 2.78125-2.617188-10.449219 58.992188-36.765626 129.382813-100.328126 173.828125zm116.390626-243.800781c11.246093 0 17.542968 3.386719 18.722656 10.066406 1.726562 9.789063-6.328125 23.734375-15.667969 27.136719-6.371094 2.316406-12.453125-1.441406-18.078125-11.179687-2.761719-4.78125-8.878906-6.425782-13.660156-3.660157-3.207032 1.851563-5.003906 5.214844-5 8.671875 0 1.695313.433594 3.414063 1.339844 4.988282 5.621093 9.738281 5.839843 16.886718.640624 21.246093-7.613281 6.386719-23.71875 6.386719-31.332031 0-5.195312-4.359375-4.980469-11.507812.644531-21.246093 2.761719-4.785157 1.121094-10.898438-3.660156-13.660157-.75-.433593-1.535156-.757812-2.332031-.980469.132813-.597656.246094-1.199218.355469-1.796874 5.855468 4.101562 12.980468 6.511718 20.660156 6.511718 19.902344 0 36.097656-16.191406 36.097656-36.097656s-16.195312-36.097656-36.097656-36.097656c-7.382812 0-14.257812 2.226562-19.980469 6.046875-.019531-.546875-.046875-1.097657-.085937-1.648438.46875-.183593.929687-.402343 1.378906-.664062 4.785156-2.761719 6.425781-8.875 3.660156-13.660157-5.621094-9.738281-5.835937-16.886718-.640625-21.246093 7.613281-6.386719 23.71875-6.386719 31.332031 0 5.195313 4.359375 4.980469 11.507812-.640624 21.246093-.910157 1.574219-1.34375 3.292969-1.34375 4.988282 0 3.457031 1.792968 6.820312 5.003906 8.671875 4.785156 2.761719 10.898437 1.125 13.660156-3.660157 5.621094-9.734374 11.703125-13.5 18.078125-11.179687 9.339844 3.398437 17.390625 17.347656 15.664063 27.136719-1.175782 6.679687-7.472657 10.066406-18.71875 10.066406-5.523438 0-10 4.476562-10 10 0 5.519531 4.476562 10 10 10zm-63.464844-10c0-8.875 7.222656-16.097656 16.097656-16.097656s16.097656 7.222656 16.097656 16.097656-7.222656 16.097656-16.097656 16.097656-16.097656-7.222656-16.097656-16.097656zm0 0"/></svg>